<svg version="1.1" xmlns="http://www.w3.org/2000/svg" viewBox="0 0 708.6296296296296 244.37037037037038" width="1417.2592592592591" height="488.74074074074076" filter="invert(93%) hue-rotate(180deg)">
  <!-- svg-source:excalidraw -->
  
  <defs>
    <style>
      @font-face {
        font-family: "Virgil";
        src: url("https://excalidraw.com/Virgil.woff2");
      }
      @font-face {
        font-family: "Cascadia";
        src: url("https://excalidraw.com/Cascadia.woff2");
      }
    </style>
  </defs>
  <rect x="0" y="0" width="708.6296296296296" height="244.37037037037038" fill="#ffffff"></rect><g transform="translate(162.4444444444444 61.833333333333314) rotate(0 85 22)"><text x="0" y="35" font-family="Cascadia, Segoe UI Emoji" font-size="36px" fill="#000000" text-anchor="start" style="white-space: pre;" direction="ltr">age = 15</text></g><g stroke-linecap="round"><g transform="translate(91.01851851851853 178.2592592592593) rotate(0 39.19085403665625 -33.33526880772857)"><path d="M0.27 -0.12 C13.02 -10.87, 64.1 -53.86, 77.24 -64.56 M-1.05 -1.23 C12 -12.36, 66.12 -55.68, 79.43 -66.55" stroke="#000000" stroke-width="1" fill="none"></path></g><g transform="translate(91.01851851851853 178.2592592592593) rotate(0 39.19085403665625 -33.33526880772857)"><path d="M63.74 -42.52 C70.01 -48.74, 76 -59.91, 79.2 -66.38 M63.2 -40.45 C69.54 -48.64, 73.3 -58.44, 79.46 -65.94" stroke="#000000" stroke-width="1" fill="none"></path></g><g transform="translate(91.01851851851853 178.2592592592593) rotate(0 39.19085403665625 -33.33526880772857)"><path d="M50.85 -58.48 C61.78 -58.93, 72.45 -64.31, 79.2 -66.38 M50.3 -56.41 C60.98 -59.4, 69.03 -63.88, 79.46 -65.94" stroke="#000000" stroke-width="1" fill="none"></path></g></g><g stroke-linecap="round"><g transform="translate(428.0555555555556 146.31481481481484) rotate(0 -45.15526221334835 -20.81708626773174)"><path d="M1.15 -0.78 C-14.02 -7.76, -75.38 -36.28, -90.43 -43.06 M0.3 1.42 C-15.1 -5.29, -76.52 -34.33, -91.46 -41.77" stroke="#000000" stroke-width="1" fill="none"></path></g><g transform="translate(428.0555555555556 146.31481481481484) rotate(0 -45.15526221334835 -20.81708626773174)"><path d="M-62.91 -39.01 C-72.86 -37.66, -80.69 -40.38, -90.54 -39.98 M-61.78 -39.49 C-71.63 -40.07, -81.63 -39.99, -91.23 -41.68" stroke="#000000" stroke-width="1" fill="none"></path></g><g transform="translate(428.0555555555556 146.31481481481484) rotate(0 -45.15526221334835 -20.81708626773174)"><path d="M-71.84 -20.53 C-78.46 -25.76, -83.15 -34.98, -90.54 -39.98 M-70.7 -21.01 C-77.59 -28.02, -84.51 -34.33, -91.23 -41.68" stroke="#000000" stroke-width="1" fill="none"></path></g></g><g stroke-linecap="round"><g transform="translate(304.4444444444445 29.18518518518519) rotate(0 -13.146950926687566 12.789787363909468)"><path d="M-1.1 -1.01 C-5.21 3.4, -21.63 22.08, -25.57 26.59 M0.52 1.07 C-3.71 5.13, -22.5 20.42, -26.82 24.82" stroke="#000000" stroke-width="1" fill="none"></path></g><g transform="translate(304.4444444444445 29.18518518518519) rotate(0 -13.146950926687566 12.789787363909468)"><path d="M-19.87 8.07 C-19.24 12.78, -21.91 16.41, -27.74 23.89 M-18.93 8.7 C-19.31 12.13, -22.85 15.76, -27.06 25.49" stroke="#000000" stroke-width="1" fill="none"></path></g><g transform="translate(304.4444444444445 29.18518518518519) rotate(0 -13.146950926687566 12.789787363909468)"><path d="M-11.63 17.23 C-12.85 19.82, -17.37 21.39, -27.74 23.89 M-10.7 17.86 C-13.01 19.16, -18.41 20.72, -27.06 25.49" stroke="#000000" stroke-width="1" fill="none"></path></g></g><g transform="translate(10 184.37037037037038) rotate(0 85.00000000000003 25)"><text x="0" y="18" font-family="Virgil, Segoe UI Emoji" font-size="20px" fill="#000000" text-anchor="start" style="white-space: pre;" direction="ltr">Give the variable</text><text x="0" y="43" font-family="Virgil, Segoe UI Emoji" font-size="20px" fill="#000000" text-anchor="start" style="white-space: pre;" direction="ltr">a name</text></g><g transform="translate(414.6296296296296 151.66666666666669) rotate(0 142 25)"><text x="0" y="18" font-family="Virgil, Segoe UI Emoji" font-size="20px" fill="#000000" text-anchor="start" style="white-space: pre;" direction="ltr">The variable value is stored</text><text x="0" y="43" font-family="Virgil, Segoe UI Emoji" font-size="20px" fill="#000000" text-anchor="start" style="white-space: pre;" direction="ltr">to the right of the =</text></g><g transform="translate(313.2407407407407 10) rotate(0 139 25)"><text x="0" y="18" font-family="Virgil, Segoe UI Emoji" font-size="20px" fill="#000000" text-anchor="start" style="white-space: pre;" direction="ltr">a single = is used to assign</text><text x="0" y="43" font-family="Virgil, Segoe UI Emoji" font-size="20px" fill="#000000" text-anchor="start" style="white-space: pre;" direction="ltr">a variable</text></g></svg>